<svg width="67" height="48" viewBox="0 0 67 48" fill="none" xmlns="http://www.w3.org/2000/svg">
<path d="M17.6225 20.9336H13.734C13.663 20.4305 13.518 19.9837 13.299 19.593C13.08 19.1965 12.7989 18.8591 12.4556 18.581C12.1123 18.3028 11.7158 18.0897 11.266 17.9418C10.8221 17.7938 10.3397 17.7198 9.81889 17.7198C8.87784 17.7198 8.05812 17.9536 7.35973 18.4212C6.66134 18.8828 6.11979 19.5575 5.73509 20.4453C5.35038 21.3272 5.15803 22.3984 5.15803 23.6591C5.15803 24.9553 5.35038 26.0443 5.73509 26.9261C6.12571 27.808 6.67022 28.4738 7.36861 28.9237C8.067 29.3735 8.87488 29.5984 9.79226 29.5984C10.3072 29.5984 10.7836 29.5303 11.2216 29.3942C11.6655 29.258 12.0591 29.0598 12.4023 28.7994C12.7456 28.533 13.0297 28.2105 13.2546 27.8317C13.4854 27.4529 13.6452 27.0208 13.734 26.5355L17.6225 26.5533C17.5219 27.3878 17.2704 28.1927 16.8679 28.968C16.4714 29.7375 15.9357 30.427 15.261 31.0366C14.5922 31.6403 13.7932 32.1197 12.864 32.4748C11.9407 32.824 10.8961 32.9986 9.73011 32.9986C8.10843 32.9986 6.65838 32.6316 5.37997 31.8977C4.10748 31.1638 3.10133 30.1014 2.36151 28.7106C1.6276 27.3197 1.26065 25.6359 1.26065 23.6591C1.26065 21.6764 1.63352 19.9896 2.37926 18.5987C3.125 17.2079 4.13707 16.1484 5.41548 15.4205C6.69389 14.6866 8.1321 14.3196 9.73011 14.3196C10.7836 14.3196 11.7602 14.4676 12.6598 14.7635C13.5653 15.0594 14.3673 15.4915 15.0657 16.0597C15.7641 16.6219 16.3323 17.3114 16.7702 18.1282C17.2141 18.945 17.4982 19.8801 17.6225 20.9336ZM20.3791 32.75V14.5682H32.6305V17.7376H24.2232V22.07H32.0002V25.2393H24.2232V29.5806H32.666V32.75H20.3791ZM35.6867 32.75V14.5682H47.9381V17.7376H39.5308V22.07H47.3078V25.2393H39.5308V29.5806H47.9736V32.75H35.6867Z" fill="#1B1464"/>
<path d="M50.9943 32.75V14.5682H58.1676C59.5466 14.5682 60.7215 14.8316 61.6921 15.3583C62.6628 15.8791 63.4026 16.6042 63.9116 17.5334C64.4265 18.4567 64.6839 19.522 64.6839 20.7294C64.6839 21.9368 64.4235 23.0021 63.9027 23.9254C63.3819 24.8487 62.6272 25.5678 61.6388 26.0827C60.6564 26.5977 59.4667 26.8551 58.07 26.8551H53.4979V23.7745H57.4485C58.1883 23.7745 58.7979 23.6473 59.2773 23.3928C59.7627 23.1323 60.1237 22.7743 60.3604 22.3185C60.6031 21.8569 60.7244 21.3272 60.7244 20.7294C60.7244 20.1257 60.6031 19.599 60.3604 19.1491C60.1237 18.6934 59.7627 18.3413 59.2773 18.0927C58.792 17.8382 58.1765 17.7109 57.4308 17.7109H54.8384V32.75H50.9943Z" fill="#006837"/>
<a href="https://www.figma.com/design/HT2Fu7n9fOvH7Fx2x9oKbQ/Ythalo-San&#39;s-team-library?node-id=2333-2">
<rect fill="black" fill-opacity="0" y="3.62216" width="65.6072" height="30.2557"/>
</a>
</svg>
